<svg xmlns="http://www.w3.org/2000/svg" version="1.1" xmlns:xlink="http://www.w3.org/1999/xlink" xmlns:svgjs="http://svgjs.dev/svgjs" width="1440" height="560" preserveAspectRatio="none" viewBox="0 0 1440 560"><g mask="url(&quot;#SvgjsMask1052&quot;)" fill="none"><rect width="1440" height="560" x="0" y="0" fill="#0e2a47"></rect><path d="M21.75 -6.99L86.7 30.51L86.7 105.51L21.75 143.01L-43.2 105.51L-43.2 30.51zM21.75 218.01L86.7 255.51L86.7 330.51L21.75 368.01L-43.2 330.51L-43.2 255.51zM86.7 330.51L151.66 368.01L151.66 443.01L86.7 480.51L21.75 443.01L21.75 368.01zM21.75 443.01L86.7 480.51L86.7 555.51L21.75 593.01L-43.2 555.51L-43.2 480.51zM151.66 -6.99L216.61 30.51L216.61 105.51L151.66 143.01L86.7 105.51L86.7 30.51zM216.61 105.51L281.56 143.01L281.56 218.01L216.61 255.51L151.66 218.01L151.66 143.01zM151.66 218.01L216.61 255.51L216.61 330.51L151.66 368.01L86.7 330.51L86.7 255.51zM216.61 555.51L281.56 593.01L281.56 668.01L216.61 705.51L151.66 668.01L151.66 593.01zM281.56 218.01L346.52 255.51L346.52 330.51L281.56 368.01L216.61 330.51L216.61 255.51zM346.52 555.51L411.47 593.01L411.47 668.01L346.52 705.51L281.56 668.01L281.56 593.01zM411.47 443.01L476.43 480.51L476.43 555.51L411.47 593.01L346.52 555.51L346.52 480.51zM606.33 105.51L671.29 143.01L671.29 218.01L606.33 255.51L541.38 218.01L541.38 143.01zM541.38 218.01L606.33 255.51L606.33 330.51L541.38 368.01L476.43 330.51L476.43 255.51zM606.33 330.51L671.29 368.01L671.29 443.01L606.33 480.51L541.38 443.01L541.38 368.01zM671.29 -6.99L736.24 30.51L736.24 105.51L671.29 143.01L606.33 105.51L606.33 30.51zM736.24 105.51L801.2 143.01L801.2 218.01L736.24 255.51L671.29 218.01L671.29 143.01zM671.29 218.01L736.24 255.51L736.24 330.51L671.29 368.01L606.33 330.51L606.33 255.51zM671.29 443.01L736.24 480.51L736.24 555.51L671.29 593.01L606.33 555.51L606.33 480.51zM736.24 555.51L801.2 593.01L801.2 668.01L736.24 705.51L671.29 668.01L671.29 593.01zM801.19 -6.99L866.15 30.51L866.15 105.51L801.19 143.01L736.24 105.51L736.24 30.51zM801.19 218.01L866.15 255.51L866.15 330.51L801.19 368.01L736.24 330.51L736.24 255.51zM866.15 330.51L931.1 368.01L931.1 443.01L866.15 480.51L801.19 443.01L801.19 368.01zM866.15 555.51L931.1 593.01L931.1 668.01L866.15 705.51L801.19 668.01L801.19 593.01zM931.1 -6.99L996.06 30.51L996.06 105.51L931.1 143.01L866.15 105.51L866.15 30.51zM996.06 105.51L1061.01 143.01L1061.01 218.01L996.06 255.51L931.1 218.01L931.1 143.01zM931.1 443.01L996.06 480.51L996.06 555.51L931.1 593.01L866.15 555.51L866.15 480.51zM1061.01 -6.99L1125.96 30.51L1125.96 105.51L1061.01 143.01L996.06 105.51L996.06 30.51zM1125.96 555.51L1190.92 593.01L1190.92 668.01L1125.96 705.51L1061.01 668.01L1061.01 593.01zM1190.92 -6.99L1255.87 30.51L1255.87 105.51L1190.92 143.01L1125.96 105.51L1125.96 30.51zM1255.87 105.51L1320.82 143.01L1320.82 218.01L1255.87 255.51L1190.92 218.01L1190.92 143.01zM1385.78 105.51L1450.73 143.01L1450.73 218.01L1385.78 255.51L1320.83 218.01L1320.83 143.01zM1320.83 218.01L1385.78 255.51L1385.78 330.51L1320.83 368.01L1255.87 330.51L1255.87 255.51zM1385.78 555.51L1450.73 593.01L1450.73 668.01L1385.78 705.51L1320.83 668.01L1320.83 593.01zM1515.69 555.51L1580.64 593.01L1580.64 668.01L1515.69 705.51L1450.73 668.01L1450.73 593.01z" stroke="rgba(16, 36, 55, 0.42)" stroke-width="2"></path><path d="M14.25 -6.99 a7.5 7.5 0 1 0 15 0 a7.5 7.5 0 1 0 -15 0zM79.2 30.51 a7.5 7.5 0 1 0 15 0 a7.5 7.5 0 1 0 -15 0zM79.2 105.51 a7.5 7.5 0 1 0 15 0 a7.5 7.5 0 1 0 -15 0zM14.25 143.01 a7.5 7.5 0 1 0 15 0 a7.5 7.5 0 1 0 -15 0zM-50.7 105.51 a7.5 7.5 0 1 0 15 0 a7.5 7.5 0 1 0 -15 0zM-50.7 30.51 a7.5 7.5 0 1 0 15 0 a7.5 7.5 0 1 0 -15 0zM14.25 218.01 a7.5 7.5 0 1 0 15 0 a7.5 7.5 0 1 0 -15 0zM79.2 255.51 a7.5 7.5 0 1 0 15 0 a7.5 7.5 0 1 0 -15 0zM79.2 330.51 a7.5 7.5 0 1 0 15 0 a7.5 7.5 0 1 0 -15 0zM14.25 368.01 a7.5 7.5 0 1 0 15 0 a7.5 7.5 0 1 0 -15 0zM-50.7 330.51 a7.5 7.5 0 1 0 15 0 a7.5 7.5 0 1 0 -15 0zM-50.7 255.51 a7.5 7.5 0 1 0 15 0 a7.5 7.5 0 1 0 -15 0zM144.16 368.01 a7.5 7.5 0 1 0 15 0 a7.5 7.5 0 1 0 -15 0zM144.16 443.01 a7.5 7.5 0 1 0 15 0 a7.5 7.5 0 1 0 -15 0zM79.2 480.51 a7.5 7.5 0 1 0 15 0 a7.5 7.5 0 1 0 -15 0zM14.25 443.01 a7.5 7.5 0 1 0 15 0 a7.5 7.5 0 1 0 -15 0zM79.2 555.51 a7.5 7.5 0 1 0 15 0 a7.5 7.5 0 1 0 -15 0zM14.25 593.01 a7.5 7.5 0 1 0 15 0 a7.5 7.5 0 1 0 -15 0zM-50.7 555.51 a7.5 7.5 0 1 0 15 0 a7.5 7.5 0 1 0 -15 0zM-50.7 480.51 a7.5 7.5 0 1 0 15 0 a7.5 7.5 0 1 0 -15 0zM144.16 -6.99 a7.5 7.5 0 1 0 15 0 a7.5 7.5 0 1 0 -15 0zM209.11 30.51 a7.5 7.5 0 1 0 15 0 a7.5 7.5 0 1 0 -15 0zM209.11 105.51 a7.5 7.5 0 1 0 15 0 a7.5 7.5 0 1 0 -15 0zM144.16 143.01 a7.5 7.5 0 1 0 15 0 a7.5 7.5 0 1 0 -15 0zM274.06 143.01 a7.5 7.5 0 1 0 15 0 a7.5 7.5 0 1 0 -15 0zM274.06 218.01 a7.5 7.5 0 1 0 15 0 a7.5 7.5 0 1 0 -15 0zM209.11 255.51 a7.5 7.5 0 1 0 15 0 a7.5 7.5 0 1 0 -15 0zM144.16 218.01 a7.5 7.5 0 1 0 15 0 a7.5 7.5 0 1 0 -15 0zM209.11 330.51 a7.5 7.5 0 1 0 15 0 a7.5 7.5 0 1 0 -15 0zM209.11 555.51 a7.5 7.5 0 1 0 15 0 a7.5 7.5 0 1 0 -15 0zM274.06 593.01 a7.5 7.5 0 1 0 15 0 a7.5 7.5 0 1 0 -15 0zM274.06 668.01 a7.5 7.5 0 1 0 15 0 a7.5 7.5 0 1 0 -15 0zM209.11 705.51 a7.5 7.5 0 1 0 15 0 a7.5 7.5 0 1 0 -15 0zM144.16 668.01 a7.5 7.5 0 1 0 15 0 a7.5 7.5 0 1 0 -15 0zM144.16 593.01 a7.5 7.5 0 1 0 15 0 a7.5 7.5 0 1 0 -15 0zM339.02 255.51 a7.5 7.5 0 1 0 15 0 a7.5 7.5 0 1 0 -15 0zM339.02 330.51 a7.5 7.5 0 1 0 15 0 a7.5 7.5 0 1 0 -15 0zM274.06 368.01 a7.5 7.5 0 1 0 15 0 a7.5 7.5 0 1 0 -15 0zM339.02 555.51 a7.5 7.5 0 1 0 15 0 a7.5 7.5 0 1 0 -15 0zM403.97 593.01 a7.5 7.5 0 1 0 15 0 a7.5 7.5 0 1 0 -15 0zM403.97 668.01 a7.5 7.5 0 1 0 15 0 a7.5 7.5 0 1 0 -15 0zM339.02 705.51 a7.5 7.5 0 1 0 15 0 a7.5 7.5 0 1 0 -15 0zM403.97 443.01 a7.5 7.5 0 1 0 15 0 a7.5 7.5 0 1 0 -15 0zM468.93 480.51 a7.5 7.5 0 1 0 15 0 a7.5 7.5 0 1 0 -15 0zM468.93 555.51 a7.5 7.5 0 1 0 15 0 a7.5 7.5 0 1 0 -15 0zM339.02 480.51 a7.5 7.5 0 1 0 15 0 a7.5 7.5 0 1 0 -15 0zM598.83 105.51 a7.5 7.5 0 1 0 15 0 a7.5 7.5 0 1 0 -15 0zM663.79 143.01 a7.5 7.5 0 1 0 15 0 a7.5 7.5 0 1 0 -15 0zM663.79 218.01 a7.5 7.5 0 1 0 15 0 a7.5 7.5 0 1 0 -15 0zM598.83 255.51 a7.5 7.5 0 1 0 15 0 a7.5 7.5 0 1 0 -15 0zM533.88 218.01 a7.5 7.5 0 1 0 15 0 a7.5 7.5 0 1 0 -15 0zM533.88 143.01 a7.5 7.5 0 1 0 15 0 a7.5 7.5 0 1 0 -15 0zM598.83 330.51 a7.5 7.5 0 1 0 15 0 a7.5 7.5 0 1 0 -15 0zM533.88 368.01 a7.5 7.5 0 1 0 15 0 a7.5 7.5 0 1 0 -15 0zM468.93 330.51 a7.5 7.5 0 1 0 15 0 a7.5 7.5 0 1 0 -15 0zM468.93 255.51 a7.5 7.5 0 1 0 15 0 a7.5 7.5 0 1 0 -15 0zM663.79 368.01 a7.5 7.5 0 1 0 15 0 a7.5 7.5 0 1 0 -15 0zM663.79 443.01 a7.5 7.5 0 1 0 15 0 a7.5 7.5 0 1 0 -15 0zM598.83 480.51 a7.5 7.5 0 1 0 15 0 a7.5 7.5 0 1 0 -15 0zM533.88 443.01 a7.5 7.5 0 1 0 15 0 a7.5 7.5 0 1 0 -15 0zM663.79 -6.99 a7.5 7.5 0 1 0 15 0 a7.5 7.5 0 1 0 -15 0zM728.74 30.51 a7.5 7.5 0 1 0 15 0 a7.5 7.5 0 1 0 -15 0zM728.74 105.51 a7.5 7.5 0 1 0 15 0 a7.5 7.5 0 1 0 -15 0zM598.83 30.51 a7.5 7.5 0 1 0 15 0 a7.5 7.5 0 1 0 -15 0zM793.7 143.01 a7.5 7.5 0 1 0 15 0 a7.5 7.5 0 1 0 -15 0zM793.7 218.01 a7.5 7.5 0 1 0 15 0 a7.5 7.5 0 1 0 -15 0zM728.74 255.51 a7.5 7.5 0 1 0 15 0 a7.5 7.5 0 1 0 -15 0zM728.74 330.51 a7.5 7.5 0 1 0 15 0 a7.5 7.5 0 1 0 -15 0zM728.74 480.51 a7.5 7.5 0 1 0 15 0 a7.5 7.5 0 1 0 -15 0zM728.74 555.51 a7.5 7.5 0 1 0 15 0 a7.5 7.5 0 1 0 -15 0zM663.79 593.01 a7.5 7.5 0 1 0 15 0 a7.5 7.5 0 1 0 -15 0zM598.83 555.51 a7.5 7.5 0 1 0 15 0 a7.5 7.5 0 1 0 -15 0zM793.7 593.01 a7.5 7.5 0 1 0 15 0 a7.5 7.5 0 1 0 -15 0zM793.7 668.01 a7.5 7.5 0 1 0 15 0 a7.5 7.5 0 1 0 -15 0zM728.74 705.51 a7.5 7.5 0 1 0 15 0 a7.5 7.5 0 1 0 -15 0zM663.79 668.01 a7.5 7.5 0 1 0 15 0 a7.5 7.5 0 1 0 -15 0zM793.69 -6.99 a7.5 7.5 0 1 0 15 0 a7.5 7.5 0 1 0 -15 0zM858.65 30.51 a7.5 7.5 0 1 0 15 0 a7.5 7.5 0 1 0 -15 0zM858.65 105.51 a7.5 7.5 0 1 0 15 0 a7.5 7.5 0 1 0 -15 0zM793.69 143.01 a7.5 7.5 0 1 0 15 0 a7.5 7.5 0 1 0 -15 0zM793.69 218.01 a7.5 7.5 0 1 0 15 0 a7.5 7.5 0 1 0 -15 0zM858.65 255.51 a7.5 7.5 0 1 0 15 0 a7.5 7.5 0 1 0 -15 0zM858.65 330.51 a7.5 7.5 0 1 0 15 0 a7.5 7.5 0 1 0 -15 0zM793.69 368.01 a7.5 7.5 0 1 0 15 0 a7.5 7.5 0 1 0 -15 0zM923.6 368.01 a7.5 7.5 0 1 0 15 0 a7.5 7.5 0 1 0 -15 0zM923.6 443.01 a7.5 7.5 0 1 0 15 0 a7.5 7.5 0 1 0 -15 0zM858.65 480.51 a7.5 7.5 0 1 0 15 0 a7.5 7.5 0 1 0 -15 0zM793.69 443.01 a7.5 7.5 0 1 0 15 0 a7.5 7.5 0 1 0 -15 0zM858.65 555.51 a7.5 7.5 0 1 0 15 0 a7.5 7.5 0 1 0 -15 0zM923.6 593.01 a7.5 7.5 0 1 0 15 0 a7.5 7.5 0 1 0 -15 0zM923.6 668.01 a7.5 7.5 0 1 0 15 0 a7.5 7.5 0 1 0 -15 0zM858.65 705.51 a7.5 7.5 0 1 0 15 0 a7.5 7.5 0 1 0 -15 0zM793.69 668.01 a7.5 7.5 0 1 0 15 0 a7.5 7.5 0 1 0 -15 0zM793.69 593.01 a7.5 7.5 0 1 0 15 0 a7.5 7.5 0 1 0 -15 0zM923.6 -6.99 a7.5 7.5 0 1 0 15 0 a7.5 7.5 0 1 0 -15 0zM988.56 30.51 a7.5 7.5 0 1 0 15 0 a7.5 7.5 0 1 0 -15 0zM988.56 105.51 a7.5 7.5 0 1 0 15 0 a7.5 7.5 0 1 0 -15 0zM923.6 143.01 a7.5 7.5 0 1 0 15 0 a7.5 7.5 0 1 0 -15 0zM1053.51 143.01 a7.5 7.5 0 1 0 15 0 a7.5 7.5 0 1 0 -15 0zM1053.51 218.01 a7.5 7.5 0 1 0 15 0 a7.5 7.5 0 1 0 -15 0zM988.56 255.51 a7.5 7.5 0 1 0 15 0 a7.5 7.5 0 1 0 -15 0zM923.6 218.01 a7.5 7.5 0 1 0 15 0 a7.5 7.5 0 1 0 -15 0zM988.56 480.51 a7.5 7.5 0 1 0 15 0 a7.5 7.5 0 1 0 -15 0zM988.56 555.51 a7.5 7.5 0 1 0 15 0 a7.5 7.5 0 1 0 -15 0zM1053.51 -6.99 a7.5 7.5 0 1 0 15 0 a7.5 7.5 0 1 0 -15 0zM1118.46 30.51 a7.5 7.5 0 1 0 15 0 a7.5 7.5 0 1 0 -15 0zM1118.46 105.51 a7.5 7.5 0 1 0 15 0 a7.5 7.5 0 1 0 -15 0zM1118.46 555.51 a7.5 7.5 0 1 0 15 0 a7.5 7.5 0 1 0 -15 0zM1183.42 593.01 a7.5 7.5 0 1 0 15 0 a7.5 7.5 0 1 0 -15 0zM1183.42 668.01 a7.5 7.5 0 1 0 15 0 a7.5 7.5 0 1 0 -15 0zM1118.46 705.51 a7.5 7.5 0 1 0 15 0 a7.5 7.5 0 1 0 -15 0zM1053.51 668.01 a7.5 7.5 0 1 0 15 0 a7.5 7.5 0 1 0 -15 0zM1053.51 593.01 a7.5 7.5 0 1 0 15 0 a7.5 7.5 0 1 0 -15 0zM1183.42 -6.99 a7.5 7.5 0 1 0 15 0 a7.5 7.5 0 1 0 -15 0zM1248.37 30.51 a7.5 7.5 0 1 0 15 0 a7.5 7.5 0 1 0 -15 0zM1248.37 105.51 a7.5 7.5 0 1 0 15 0 a7.5 7.5 0 1 0 -15 0zM1183.42 143.01 a7.5 7.5 0 1 0 15 0 a7.5 7.5 0 1 0 -15 0zM1313.32 143.01 a7.5 7.5 0 1 0 15 0 a7.5 7.5 0 1 0 -15 0zM1313.32 218.01 a7.5 7.5 0 1 0 15 0 a7.5 7.5 0 1 0 -15 0zM1248.37 255.51 a7.5 7.5 0 1 0 15 0 a7.5 7.5 0 1 0 -15 0zM1183.42 218.01 a7.5 7.5 0 1 0 15 0 a7.5 7.5 0 1 0 -15 0zM1378.28 105.51 a7.5 7.5 0 1 0 15 0 a7.5 7.5 0 1 0 -15 0zM1443.23 143.01 a7.5 7.5 0 1 0 15 0 a7.5 7.5 0 1 0 -15 0zM1443.23 218.01 a7.5 7.5 0 1 0 15 0 a7.5 7.5 0 1 0 -15 0zM1378.28 255.51 a7.5 7.5 0 1 0 15 0 a7.5 7.5 0 1 0 -15 0zM1313.33 218.01 a7.5 7.5 0 1 0 15 0 a7.5 7.5 0 1 0 -15 0zM1313.33 143.01 a7.5 7.5 0 1 0 15 0 a7.5 7.5 0 1 0 -15 0zM1378.28 330.51 a7.5 7.5 0 1 0 15 0 a7.5 7.5 0 1 0 -15 0zM1313.33 368.01 a7.5 7.5 0 1 0 15 0 a7.5 7.5 0 1 0 -15 0zM1248.37 330.51 a7.5 7.5 0 1 0 15 0 a7.5 7.5 0 1 0 -15 0zM1378.28 555.51 a7.5 7.5 0 1 0 15 0 a7.5 7.5 0 1 0 -15 0zM1443.23 593.01 a7.5 7.5 0 1 0 15 0 a7.5 7.5 0 1 0 -15 0zM1443.23 668.01 a7.5 7.5 0 1 0 15 0 a7.5 7.5 0 1 0 -15 0zM1378.28 705.51 a7.5 7.5 0 1 0 15 0 a7.5 7.5 0 1 0 -15 0zM1313.33 668.01 a7.5 7.5 0 1 0 15 0 a7.5 7.5 0 1 0 -15 0zM1313.33 593.01 a7.5 7.5 0 1 0 15 0 a7.5 7.5 0 1 0 -15 0zM1508.19 555.51 a7.5 7.5 0 1 0 15 0 a7.5 7.5 0 1 0 -15 0zM1573.14 593.01 a7.5 7.5 0 1 0 15 0 a7.5 7.5 0 1 0 -15 0zM1573.14 668.01 a7.5 7.5 0 1 0 15 0 a7.5 7.5 0 1 0 -15 0zM1508.19 705.51 a7.5 7.5 0 1 0 15 0 a7.5 7.5 0 1 0 -15 0z" fill="rgba(16, 36, 55, 0.42)"></path><path d="M211.69 69.76L268.85 102.76L268.85 168.76L211.69 201.76L154.53 168.76L154.53 102.76zM268.85 -29.24L326.01 3.76L326.01 69.76L268.85 102.76L211.69 69.76L211.69 3.76zM326.01 69.76L383.17 102.76L383.17 168.76L326.01 201.76L268.85 168.76L268.85 102.76zM268.85 564.76L326.01 597.76L326.01 663.76L268.85 696.76L211.69 663.76L211.69 597.76zM383.17 564.76L440.33 597.76L440.33 663.76L383.17 696.76L326.01 663.76L326.01 597.76zM554.64 69.76L611.8 102.76L611.8 168.76L554.64 201.76L497.48 168.76L497.48 102.76zM668.96 267.76L726.12 300.76L726.12 366.76L668.96 399.76L611.8 366.76L611.8 300.76zM668.96 465.76L726.12 498.76L726.12 564.76L668.96 597.76L611.8 564.76L611.8 498.76zM783.28 69.76L840.44 102.76L840.44 168.76L783.28 201.76L726.12 168.76L726.12 102.76zM726.12 366.76L783.28 399.76L783.28 465.76L726.12 498.76L668.96 465.76L668.96 399.76zM783.28 465.76L840.44 498.76L840.44 564.76L783.28 597.76L726.12 564.76L726.12 498.76zM726.12 564.76L783.28 597.76L783.28 663.76L726.12 696.76L668.96 663.76L668.96 597.76zM897.6 69.76L954.76 102.76L954.76 168.76L897.6 201.76L840.44 168.76L840.44 102.76zM840.44 168.76L897.6 201.76L897.6 267.76L840.44 300.76L783.28 267.76L783.28 201.76zM1069.08 366.76L1126.24 399.76L1126.24 465.76L1069.08 498.76L1011.92 465.76L1011.92 399.76zM1069.08 564.76L1126.24 597.76L1126.24 663.76L1069.08 696.76L1011.92 663.76L1011.92 597.76zM1240.56 267.76L1297.71 300.76L1297.71 366.76L1240.56 399.76L1183.4 366.76L1183.4 300.76zM1240.56 465.76L1297.71 498.76L1297.71 564.76L1240.56 597.76L1183.4 564.76L1183.4 498.76zM1354.87 267.76L1412.03 300.76L1412.03 366.76L1354.87 399.76L1297.71 366.76L1297.71 300.76zM1354.87 465.76L1412.03 498.76L1412.03 564.76L1354.87 597.76L1297.71 564.76L1297.71 498.76zM1412.03 366.76L1469.19 399.76L1469.19 465.76L1412.03 498.76L1354.87 465.76L1354.87 399.76zM1469.19 465.76L1526.35 498.76L1526.35 564.76L1469.19 597.76L1412.03 564.76L1412.03 498.76z" stroke="rgba(6, 56, 106, 0.32)" stroke-width="2"></path></g><defs><mask id="SvgjsMask1052"><rect width="1440" height="560" fill="#ffffff"></rect></mask></defs></svg>